<svg xmlns="http://www.w3.org/2000/svg" viewBox="0 0 100 100" preserveAspectRatio="xMidYMid" width="223" height="223" style="shape-rendering: auto; display: block; background: transparent;" xmlns:xlink="http://www.w3.org/1999/xlink"><g><g transform="rotate(0 50 50)">
  <rect fill="#fe718d" height="11" width="8" ry="4.4" rx="4" y="22.5" x="46">
    <animate repeatCount="indefinite" begin="-0.8928571428571428s" dur="0.9615384615384615s" keyTimes="0;1" values="1;0" attributeName="opacity"></animate>
  </rect>
</g><g transform="rotate(25.714285714285715 50 50)">
  <rect fill="#fe718d" height="11" width="8" ry="4.4" rx="4" y="22.5" x="46">
    <animate repeatCount="indefinite" begin="-0.8241758241758241s" dur="0.9615384615384615s" keyTimes="0;1" values="1;0" attributeName="opacity"></animate>
  </rect>
</g><g transform="rotate(51.42857142857143 50 50)">
  <rect fill="#fe718d" height="11" width="8" ry="4.4" rx="4" y="22.5" x="46">
    <animate repeatCount="indefinite" begin="-0.7554945054945055s" dur="0.9615384615384615s" keyTimes="0;1" values="1;0" attributeName="opacity"></animate>
  </rect>
</g><g transform="rotate(77.14285714285714 50 50)">
  <rect fill="#fe718d" height="11" width="8" ry="4.4" rx="4" y="22.5" x="46">
    <animate repeatCount="indefinite" begin="-0.6868131868131868s" dur="0.9615384615384615s" keyTimes="0;1" values="1;0" attributeName="opacity"></animate>
  </rect>
</g><g transform="rotate(102.85714285714286 50 50)">
  <rect fill="#fe718d" height="11" width="8" ry="4.4" rx="4" y="22.5" x="46">
    <animate repeatCount="indefinite" begin="-0.6181318681318682s" dur="0.9615384615384615s" keyTimes="0;1" values="1;0" attributeName="opacity"></animate>
  </rect>
</g><g transform="rotate(128.57142857142858 50 50)">
  <rect fill="#fe718d" height="11" width="8" ry="4.4" rx="4" y="22.5" x="46">
    <animate repeatCount="indefinite" begin="-0.5494505494505494s" dur="0.9615384615384615s" keyTimes="0;1" values="1;0" attributeName="opacity"></animate>
  </rect>
</g><g transform="rotate(154.28571428571428 50 50)">
  <rect fill="#fe718d" height="11" width="8" ry="4.4" rx="4" y="22.5" x="46">
    <animate repeatCount="indefinite" begin="-0.4807692307692307s" dur="0.9615384615384615s" keyTimes="0;1" values="1;0" attributeName="opacity"></animate>
  </rect>
</g><g transform="rotate(180 50 50)">
  <rect fill="#fe718d" height="11" width="8" ry="4.4" rx="4" y="22.5" x="46">
    <animate repeatCount="indefinite" begin="-0.41208791208791207s" dur="0.9615384615384615s" keyTimes="0;1" values="1;0" attributeName="opacity"></animate>
  </rect>
</g><g transform="rotate(205.71428571428572 50 50)">
  <rect fill="#fe718d" height="11" width="8" ry="4.4" rx="4" y="22.5" x="46">
    <animate repeatCount="indefinite" begin="-0.3434065934065934s" dur="0.9615384615384615s" keyTimes="0;1" values="1;0" attributeName="opacity"></animate>
  </rect>
</g><g transform="rotate(231.42857142857142 50 50)">
  <rect fill="#fe718d" height="11" width="8" ry="4.4" rx="4" y="22.5" x="46">
    <animate repeatCount="indefinite" begin="-0.2747252747252747s" dur="0.9615384615384615s" keyTimes="0;1" values="1;0" attributeName="opacity"></animate>
  </rect>
</g><g transform="rotate(257.14285714285717 50 50)">
  <rect fill="#fe718d" height="11" width="8" ry="4.4" rx="4" y="22.5" x="46">
    <animate repeatCount="indefinite" begin="-0.20604395604395603s" dur="0.9615384615384615s" keyTimes="0;1" values="1;0" attributeName="opacity"></animate>
  </rect>
</g><g transform="rotate(282.85714285714283 50 50)">
  <rect fill="#fe718d" height="11" width="8" ry="4.4" rx="4" y="22.5" x="46">
    <animate repeatCount="indefinite" begin="-0.13736263736263735s" dur="0.9615384615384615s" keyTimes="0;1" values="1;0" attributeName="opacity"></animate>
  </rect>
</g><g transform="rotate(308.57142857142856 50 50)">
  <rect fill="#fe718d" height="11" width="8" ry="4.4" rx="4" y="22.5" x="46">
    <animate repeatCount="indefinite" begin="-0.06868131868131867s" dur="0.9615384615384615s" keyTimes="0;1" values="1;0" attributeName="opacity"></animate>
  </rect>
</g><g transform="rotate(334.2857142857143 50 50)">
  <rect fill="#fe718d" height="11" width="8" ry="4.4" rx="4" y="22.5" x="46">
    <animate repeatCount="indefinite" begin="0s" dur="0.9615384615384615s" keyTimes="0;1" values="1;0" attributeName="opacity"></animate>
  </rect>
</g><g></g></g><!-- [ldio] generated by https://loading.io --></svg>